<svg xmlns="http://www.w3.org/2000/svg" height="234.01" viewBox="0 0 152 234.01286" width="152"><g transform="matrix(1.25 0 0 -1.25 -339.55 573.75)"><g transform="matrix(4.2615 0 0 4.2615 -1081 -1188.1)"><path d="m345.72 386.37h-0.971-9.339-0.971v-0.971-5.543-0.267l0.137-0.23 6.043-10.152v-8.46l-14.809 25.145-0.281 0.478h-0.555-6.442-0.971v-0.971-41.613-0.971h0.971 9.338 0.971v0.971 5.544 0.267l-0.136 0.229-6.043 10.152v8.46l14.808-25.145 0.282-0.478h0.555 6.442 0.971v0.971 41.613 0.971zm-0.971-0.971v-41.613h-6.442l-16.616 28.214v-12.289l6.179-10.381v-5.544h-9.338v41.613h6.442l16.616-28.214v12.289l-6.18 10.382v5.543h9.339z" fill="#fff"/><g fill="#59118e"><path d="m335.41 385.4v-5.543l6.18-10.382v-12.289l-16.617 28.214h-6.441v-41.613h9.338v5.544l-6.179 10.381v12.289l16.616-28.214h6.442v41.613h-9.339z"/><path d="m335.41 385.4v-5.543l6.18-10.382v-12.289l-16.617 28.214h-6.441v-41.613h9.338v5.544l-6.179 10.381v12.289l16.616-28.214h6.442v41.613h-9.339z"/></g></g></g></svg>